<svg width="53" height="40" viewBox="0 0 53 40" fill="none" xmlns="http://www.w3.org/2000/svg">
<g clip-path="url(#clip0)">
<path d="M49.8452 17.5H3.15469C2.96036 17.5 2.77612 17.5888 2.65624 17.74C2.53636 17.8913 2.49471 18.0888 2.54141 18.2763L7.5966 38.2975C7.71774 38.7188 8.09 40 9.46421 40H43.5356C44.9149 40 45.2834 38.7175 45.4096 38.2763L50.4572 18.2763C50.5039 18.09 50.4622 17.8913 50.3424 17.74C50.2237 17.5888 50.0395 17.5 49.8452 17.5ZM44.1918 37.9538C43.9622 38.75 43.7249 38.75 43.5356 38.75H9.46421C9.27619 38.75 9.04021 38.75 8.81433 37.9737L3.96357 18.75H49.0375L44.1918 37.9538Z" fill="#97CADB"/>
<path d="M23.3452 35C23.6935 35 23.9761 34.72 23.9761 34.375V23.125C23.9761 22.78 23.6935 22.5 23.3452 22.5C22.9969 22.5 22.7142 22.78 22.7142 23.125V34.375C22.7142 34.72 22.9969 35 23.3452 35Z" fill="#97CADB"/>
<path d="M14.5106 35C14.5346 35 14.5573 34.9988 14.5825 34.9963C14.9283 34.9575 15.1782 34.6488 15.139 34.3063L13.8771 23.0563C13.8393 22.7125 13.5364 22.47 13.1793 22.5038C12.8335 22.5425 12.5837 22.8513 12.6228 23.1938L13.8847 34.4438C13.92 34.7638 14.1939 35 14.5106 35Z" fill="#97CADB"/>
<path d="M30.9167 35C31.265 35 31.5477 34.72 31.5477 34.375V23.125C31.5477 22.78 31.265 22.5 30.9167 22.5C30.5684 22.5 30.2858 22.78 30.2858 23.125V34.375C30.2858 34.72 30.5684 35 30.9167 35Z" fill="#97CADB"/>
<path d="M38.4175 34.9963C38.4427 34.9988 38.4654 35 38.4894 35C38.8062 35 39.08 34.7638 39.1153 34.4438L40.3772 23.1938C40.4151 22.8513 40.1665 22.5425 39.8207 22.5038C39.4586 22.4688 39.162 22.7125 39.1229 23.0563L37.861 34.3063C37.8231 34.6488 38.0717 34.9575 38.4175 34.9963Z" fill="#97CADB"/>
<path d="M43.5357 15C43.6821 15 43.8285 14.95 43.9484 14.8475C44.2121 14.6213 44.2399 14.2275 44.0127 13.9663L32.0246 0.216265C31.7962 -0.0462354 31.3987 -0.0724854 31.135 0.151265C30.8713 0.377515 30.8435 0.771265 31.0706 1.03251L43.0587 14.7825C43.1837 14.9263 43.3591 15 43.5357 15Z" fill="#97CADB"/>
<path d="M22.4821 0.141247C22.2133 -0.0750026 21.8158 -0.0387526 21.595 0.229997L10.2379 13.98C10.017 14.2462 10.0561 14.64 10.3262 14.86C10.4435 14.9537 10.5861 15 10.7262 15C10.9092 15 11.0896 14.9225 11.2146 14.77L22.5717 1.02C22.7925 0.753747 22.7522 0.359997 22.4821 0.141247Z" fill="#97CADB"/>
<path d="M52.369 12.5H47.3214C46.9731 12.5 46.6904 12.78 46.6904 13.125C46.6904 13.47 46.9731 13.75 47.3214 13.75H52.369C52.7173 13.75 53 13.47 53 13.125C53 12.78 52.7173 12.5 52.369 12.5Z" fill="#97CADB"/>
<path d="M17.0357 13.75H37.2262C37.5745 13.75 37.8572 13.47 37.8572 13.125C37.8572 12.78 37.5745 12.5 37.2262 12.5H17.0357C16.6875 12.5 16.4048 12.78 16.4048 13.125C16.4048 13.47 16.6875 13.75 17.0357 13.75Z" fill="#97CADB"/>
<path d="M0.630952 13.75H6.94048C7.28876 13.75 7.57143 13.47 7.57143 13.125C7.57143 12.78 7.28876 12.5 6.94048 12.5H0.630952C0.282667 12.5 0 12.78 0 13.125C0 13.47 0.282667 13.75 0.630952 13.75Z" fill="#97CADB"/>
</g>
<defs>
<clipPath id="clip0">
<rect width="53" height="40" fill="white"/>
</clipPath>
</defs>
</svg>
