<svg width="33" height="38" viewBox="0 0 33 38" fill="none" xmlns="http://www.w3.org/2000/svg">
<path d="M15.5859 0.641254C15.2934 0.679848 14.9095 0.739223 14.7297 0.771877C13.3586 1.02719 11.9327 1.64172 10.7962 2.47297C10.3727 2.78172 10.2813 2.85594 9.85778 3.24781C8.89801 4.13547 8.10278 5.29329 7.61223 6.51641C7.41114 7.00922 7.35629 7.18141 7.24356 7.63266C6.83832 9.23875 6.86879 10.7944 7.33497 12.3886C7.49036 12.9259 7.67317 13.3831 7.96872 13.968C8.18504 14.3984 8.21247 14.4727 8.25817 14.7547C8.3252 15.1881 8.43489 15.6928 8.57504 16.2034C9.13262 18.2578 10.068 19.9945 11.3782 21.3958C11.8565 21.9064 12.5086 22.5358 12.5421 22.518C12.5817 22.4913 12.5482 22.6308 12.3806 23.2008C12.2983 23.4769 12.1612 23.9311 12.082 24.2072C11.9997 24.4833 11.9266 24.7119 11.9205 24.7178C11.9144 24.7238 11.8718 24.6881 11.823 24.6406C11.7743 24.5902 11.7133 24.5516 11.6859 24.5516C11.6585 24.5516 11.5 24.6169 11.3325 24.697C11.1679 24.7772 10.9638 24.8722 10.8785 24.9078C10.4458 25.0978 9.35504 25.5936 9.17528 25.6797C9.07778 25.7302 8.96809 25.7688 8.93458 25.7688C8.90106 25.7688 8.82489 25.7806 8.76395 25.7984C8.70301 25.8133 8.52325 25.8519 8.36481 25.8875C7.597 26.0508 6.00043 26.4427 5.51598 26.5852C3.95903 27.0453 2.87129 27.5916 2.09738 28.3041C1.16504 29.162 0.677539 30.1388 0.427696 31.6617C0.40332 31.825 0.366758 32.0388 0.348477 32.1367C0.333242 32.2347 0.314961 32.4959 0.30582 32.7156C0.299727 32.9353 0.275352 33.5914 0.24793 34.1703C0.223555 34.7492 0.186992 35.625 0.168711 36.1148C0.153477 36.6047 0.129102 37.2281 0.119961 37.5013L0.0986328 38H16.5274C30.1561 38 32.9531 37.9941 32.9531 37.9614C32.9531 37.9169 32.8434 37.1094 32.621 35.5359C32.5357 34.9392 32.4047 33.9714 32.3315 33.3836C32.2554 32.7958 32.1792 32.2288 32.1609 32.1219C32.039 31.3945 31.9994 31.1867 31.9446 30.9641C31.6673 29.8567 31.189 28.9958 30.4821 28.3367C29.8971 27.7905 29.3761 27.4609 28.4559 27.0572C27.7886 26.7663 26.6034 26.413 25.1683 26.0805C24.2543 25.8667 24.239 25.8638 23.9465 25.8014C23.6632 25.7391 23.3829 25.6144 21.6949 24.8009L21.116 24.5189L21.0002 24.6406C20.9332 24.7089 20.8783 24.7594 20.8753 24.7534C20.8692 24.7475 20.8357 24.6317 20.7991 24.4922C20.7595 24.3527 20.6772 24.0647 20.6133 23.8539C20.4213 23.2097 20.339 22.9039 20.339 22.8386C20.339 22.797 20.4183 22.7109 20.5767 22.5833C20.8387 22.3666 21.4024 21.8114 21.7254 21.4492C21.8442 21.3186 21.9539 21.1998 21.9722 21.182C22.024 21.1345 22.3591 20.7219 22.4749 20.5616C22.5328 20.4814 22.6272 20.3478 22.6882 20.2647C22.9289 19.9292 22.9929 19.8283 23.2366 19.4156C24.0593 18.0114 24.5864 16.5122 24.8911 14.7013C24.9611 14.2975 24.9825 14.2263 25.1165 13.962C25.6132 13.0002 25.8935 12.0977 26.058 10.9458C26.122 10.4975 26.1281 9.27438 26.0702 8.83203C26.0245 8.46985 25.8752 7.72469 25.7868 7.42188C25.1226 5.10922 23.584 3.16172 21.4359 1.92078C20.2293 1.22313 19.038 0.834221 17.5054 0.641254C16.8839 0.561096 16.1953 0.561096 15.5859 0.641254ZM18.1453 27.3808C18.1453 27.3867 18.1087 27.4223 18.063 27.4639L17.9777 27.5352L18.0508 27.452C18.1209 27.3778 18.1453 27.357 18.1453 27.3808ZM17.4293 28.0844C17.4201 28.0992 17.3958 28.1141 17.3805 28.1141C17.3622 28.1141 17.3592 28.0992 17.3683 28.0844C17.3775 28.0666 17.4018 28.0547 17.4171 28.0547C17.4354 28.0547 17.4384 28.0666 17.4293 28.0844ZM17.2922 28.1823C17.2922 28.1883 17.2343 28.2447 17.1642 28.307L17.0332 28.4258L17.155 28.2981C17.2647 28.1823 17.2922 28.1586 17.2922 28.1823ZM16.9265 28.5386C16.9265 28.5445 16.8747 28.595 16.8138 28.6514L16.698 28.7523L16.8016 28.6395C16.9022 28.5386 16.9265 28.5148 16.9265 28.5386ZM16.5914 28.8563C16.5731 28.8889 16.5426 28.9156 16.5243 28.9156C16.5061 28.9156 16.5152 28.8889 16.5457 28.8563C16.5761 28.8236 16.6066 28.7969 16.6127 28.7969C16.6188 28.7969 16.6097 28.8236 16.5914 28.8563Z" fill="#97CADB"/>
</svg>
