<svg width="219" height="60" viewBox="0 0 219 60" fill="none" xmlns="http://www.w3.org/2000/svg">
<path d="M0 6C0 2.68629 2.68629 0 6 0H54C57.3137 0 60 2.68629 60 6V20.142C60 22.1296 61.3176 23.8765 63.2288 24.4225C67.4755 25.6359 67.554 31.6259 63.3406 32.9501L63.1574 33.0077C61.2784 33.5982 60 35.34 60 37.3097V54C60 57.3137 57.3137 60 54 60H6C2.68629 60 0 57.3137 0 54V6Z" fill="#018ABE"/>
<path d="M92.5586 32.9824V42H87.2852V16.4062H97.2695C99.1914 16.4062 100.879 16.7578 102.332 17.4609C103.797 18.1641 104.922 19.166 105.707 20.4668C106.492 21.7559 106.885 23.2266 106.885 24.8789C106.885 27.3867 106.023 29.3672 104.301 30.8203C102.59 32.2617 100.217 32.9824 97.1816 32.9824H92.5586ZM92.5586 28.7109H97.2695C98.6641 28.7109 99.7246 28.3828 100.451 27.7266C101.189 27.0703 101.559 26.1328 101.559 24.9141C101.559 23.6602 101.189 22.6465 100.451 21.873C99.7129 21.0996 98.6934 20.7012 97.3926 20.6777H92.5586V28.7109ZM118.697 42.3516C115.908 42.3516 113.635 41.4961 111.877 39.7852C110.131 38.0742 109.258 35.7949 109.258 32.9473V32.4551C109.258 30.5449 109.627 28.8398 110.365 27.3398C111.104 25.8281 112.146 24.668 113.494 23.8594C114.854 23.0391 116.4 22.6289 118.135 22.6289C120.736 22.6289 122.781 23.4492 124.27 25.0898C125.77 26.7305 126.52 29.0566 126.52 32.0684V34.1426H114.408C114.572 35.3848 115.064 36.3809 115.885 37.1309C116.717 37.8809 117.766 38.2559 119.031 38.2559C120.988 38.2559 122.518 37.5469 123.619 36.1289L126.115 38.9238C125.354 40.002 124.322 40.8457 123.021 41.4551C121.721 42.0527 120.279 42.3516 118.697 42.3516ZM118.117 26.7422C117.109 26.7422 116.289 27.082 115.656 27.7617C115.035 28.4414 114.637 29.4141 114.461 30.6797H121.527V30.2754C121.504 29.1504 121.199 28.2832 120.613 27.6738C120.027 27.0527 119.195 26.7422 118.117 26.7422ZM135.502 18.3047V22.9805H138.754V26.707H135.502V36.1992C135.502 36.9023 135.637 37.4062 135.906 37.7109C136.176 38.0156 136.691 38.168 137.453 38.168C138.016 38.168 138.514 38.127 138.947 38.0449V41.8945C137.951 42.1992 136.926 42.3516 135.871 42.3516C132.309 42.3516 130.492 40.5527 130.422 36.9551V26.707H127.645V22.9805H130.422V18.3047H135.502ZM151.885 36.7441C151.885 36.123 151.574 35.6367 150.953 35.2852C150.344 34.9219 149.359 34.5996 148 34.3184C143.477 33.3691 141.215 31.4473 141.215 28.5527C141.215 26.8652 141.912 25.459 143.307 24.334C144.713 23.1973 146.547 22.6289 148.809 22.6289C151.223 22.6289 153.15 23.1973 154.592 24.334C156.045 25.4707 156.771 26.9473 156.771 28.7637H151.691C151.691 28.0371 151.457 27.4395 150.988 26.9707C150.52 26.4902 149.787 26.25 148.791 26.25C147.936 26.25 147.273 26.4434 146.805 26.8301C146.336 27.2168 146.102 27.709 146.102 28.3066C146.102 28.8691 146.365 29.3262 146.893 29.6777C147.432 30.0176 148.334 30.3164 149.6 30.5742C150.865 30.8203 151.932 31.1016 152.799 31.418C155.482 32.4023 156.824 34.1074 156.824 36.5332C156.824 38.2676 156.08 39.6738 154.592 40.752C153.104 41.8184 151.182 42.3516 148.826 42.3516C147.232 42.3516 145.814 42.0703 144.572 41.5078C143.342 40.9336 142.375 40.1543 141.672 39.1699C140.969 38.1738 140.617 37.1016 140.617 35.9531H145.434C145.48 36.8555 145.814 37.5469 146.436 38.0273C147.057 38.5078 147.889 38.748 148.932 38.748C149.904 38.748 150.637 38.5664 151.129 38.2031C151.633 37.8281 151.885 37.3418 151.885 36.7441ZM165.068 25.0547C166.416 23.4375 168.109 22.6289 170.148 22.6289C174.273 22.6289 176.365 25.0254 176.424 29.8184V42H171.344V29.959C171.344 28.8691 171.109 28.0664 170.641 27.5508C170.172 27.0234 169.393 26.7598 168.303 26.7598C166.814 26.7598 165.736 27.334 165.068 28.4824V42H159.988V15H165.068V25.0547ZM179.465 32.3145C179.465 30.4277 179.828 28.7461 180.555 27.2695C181.281 25.793 182.324 24.6504 183.684 23.8418C185.055 23.0332 186.643 22.6289 188.447 22.6289C191.014 22.6289 193.105 23.4141 194.723 24.9844C196.352 26.5547 197.26 28.6875 197.447 31.3828L197.482 32.6836C197.482 35.6016 196.668 37.9453 195.039 39.7148C193.41 41.4727 191.225 42.3516 188.482 42.3516C185.74 42.3516 183.549 41.4727 181.908 39.7148C180.279 37.957 179.465 35.5664 179.465 32.543V32.3145ZM184.545 32.6836C184.545 34.4883 184.885 35.8711 185.564 36.832C186.244 37.7812 187.217 38.2559 188.482 38.2559C189.713 38.2559 190.674 37.7871 191.365 36.8496C192.057 35.9004 192.402 34.3887 192.402 32.3145C192.402 30.5449 192.057 29.1738 191.365 28.2012C190.674 27.2285 189.701 26.7422 188.447 26.7422C187.205 26.7422 186.244 27.2285 185.564 28.2012C184.885 29.1621 184.545 30.6562 184.545 32.6836ZM217.732 32.666C217.732 35.5957 217.064 37.9453 215.729 39.7148C214.404 41.4727 212.611 42.3516 210.35 42.3516C208.428 42.3516 206.875 41.6836 205.691 40.3477V49.3125H200.611V22.9805H205.322L205.498 24.8438C206.729 23.3672 208.334 22.6289 210.314 22.6289C212.658 22.6289 214.48 23.4961 215.781 25.2305C217.082 26.9648 217.732 29.3555 217.732 32.4023V32.666ZM212.652 32.2969C212.652 30.5273 212.336 29.1621 211.703 28.2012C211.082 27.2402 210.174 26.7598 208.979 26.7598C207.385 26.7598 206.289 27.3691 205.691 28.5879V36.375C206.312 37.6289 207.42 38.2559 209.014 38.2559C211.439 38.2559 212.652 36.2695 212.652 32.2969Z" fill="#97CADB"/>
<path d="M15.0488 32.4902V42H10.6016V16.4062H20.3926C23.252 16.4062 25.5195 17.1504 27.1953 18.6387C28.8828 20.127 29.7266 22.0957 29.7266 24.5449C29.7266 27.0527 28.9004 29.0039 27.248 30.3984C25.6074 31.793 23.3047 32.4902 20.3398 32.4902H15.0488ZM15.0488 28.9219H20.3926C21.9746 28.9219 23.1816 28.5527 24.0137 27.8145C24.8457 27.0645 25.2617 25.9863 25.2617 24.5801C25.2617 23.1973 24.8398 22.0957 23.9961 21.2754C23.1523 20.4434 21.9922 20.0156 20.5156 19.9922H15.0488V28.9219ZM47.0059 35.4082C47.0059 34.2832 46.6074 33.416 45.8105 32.8066C45.0254 32.1973 43.6016 31.582 41.5391 30.9609C39.4766 30.3398 37.8359 29.6484 36.6172 28.8867C34.2852 27.4219 33.1191 25.5117 33.1191 23.1562C33.1191 21.0938 33.957 19.3945 35.6328 18.0586C37.3203 16.7227 39.5059 16.0547 42.1895 16.0547C43.9707 16.0547 45.5586 16.3828 46.9531 17.0391C48.3477 17.6953 49.4434 18.6328 50.2402 19.8516C51.0371 21.0586 51.4355 22.4004 51.4355 23.877H47.0059C47.0059 22.541 46.584 21.498 45.7402 20.748C44.9082 19.9863 43.7129 19.6055 42.1543 19.6055C40.7012 19.6055 39.5703 19.916 38.7617 20.5371C37.9648 21.1582 37.5664 22.0254 37.5664 23.1387C37.5664 24.0762 38 24.8613 38.8672 25.4941C39.7344 26.1152 41.1641 26.7246 43.1562 27.3223C45.1484 27.9082 46.748 28.582 47.9551 29.3438C49.1621 30.0938 50.0469 30.9609 50.6094 31.9453C51.1719 32.918 51.4531 34.0605 51.4531 35.373C51.4531 37.5059 50.6328 39.2051 48.9922 40.4707C47.3633 41.7246 45.1484 42.3516 42.3477 42.3516C40.4961 42.3516 38.791 42.0117 37.2324 41.332C35.6855 40.6406 34.4785 39.6914 33.6113 38.4844C32.7559 37.2773 32.3281 35.8711 32.3281 34.2656H36.7754C36.7754 35.7188 37.2559 36.8438 38.2168 37.6406C39.1777 38.4375 40.5547 38.8359 42.3477 38.8359C43.8945 38.8359 45.0547 38.5254 45.8281 37.9043C46.6133 37.2715 47.0059 36.4395 47.0059 35.4082Z" fill="#97CADB"/>
</svg>
